<svg width="200" height="68" viewBox="0 0 200 68" fill="none" xmlns="http://www.w3.org/2000/svg">
<rect x="2.5" y="6.88672" width="190.226" height="58.6129" stroke="#CB7454" stroke-width="5"/>
<rect x="6.88672" y="2.5" width="190.226" height="58.6129" stroke="#DF8F66" stroke-width="5"/>
<path d="M54.5274 43.42C52.9874 43.42 51.6807 43.0933 50.6074 42.44C49.5574 41.7633 48.7641 40.9 48.2274 39.85C47.7141 38.7767 47.4574 37.6567 47.4574 36.49C47.4574 35.02 47.8657 33.7367 48.6824 32.64C49.4991 31.52 50.5374 30.6683 51.7974 30.085C53.0807 29.4783 54.3874 29.175 55.7174 29.175C56.8374 29.175 57.8407 29.4083 58.7274 29.875C59.6374 30.3417 60.0924 30.9833 60.0924 31.8C60.0924 32.2433 59.9174 32.6283 59.5674 32.955C59.2407 33.2583 58.7741 33.41 58.1674 33.41C57.6074 33.41 57.1641 33.27 56.8374 32.99C56.5107 32.6867 56.2424 32.2317 56.0324 31.625C55.8224 30.9717 55.6124 30.5283 55.4024 30.295C55.2157 30.0383 54.8657 29.91 54.3524 29.91C53.3491 29.91 52.5441 30.4117 51.9374 31.415C51.3541 32.395 51.0624 33.7017 51.0624 35.335C51.0624 37.2717 51.4941 38.8233 52.3574 39.99C53.2207 41.1333 54.5974 41.705 56.4874 41.705C57.1174 41.705 57.6541 41.635 58.0974 41.495C58.5641 41.355 59.1474 41.1217 59.8474 40.795H59.8824C59.9524 40.795 60.0107 40.83 60.0574 40.9C60.1274 40.97 60.1391 41.0283 60.0924 41.075C59.2291 41.8683 58.3657 42.4633 57.5024 42.86C56.6391 43.2333 55.6474 43.42 54.5274 43.42ZM69.2955 43.455C67.8488 43.455 66.5772 43.1283 65.4805 42.475C64.4072 41.7983 63.5788 40.9 62.9955 39.78C62.4122 38.6367 62.1205 37.4 62.1205 36.07C62.1205 34.5533 62.5055 33.27 63.2755 32.22C64.0455 31.1467 65.0255 30.3533 66.2155 29.84C67.4055 29.3033 68.6305 29.035 69.8905 29.035C71.3372 29.035 72.5972 29.3733 73.6705 30.05C74.7438 30.7267 75.5605 31.625 76.1205 32.745C76.7038 33.8417 76.9955 35.02 76.9955 36.28C76.9955 37.68 76.6455 38.9283 75.9455 40.025C75.2455 41.0983 74.3005 41.9383 73.1105 42.545C71.9438 43.1517 70.6722 43.455 69.2955 43.455ZM70.3455 42.72C71.2555 42.72 71.9438 42.2767 72.4105 41.39C72.9005 40.48 73.1455 39.185 73.1455 37.505C73.1455 35.8717 72.9355 34.4717 72.5155 33.305C72.0955 32.1383 71.5472 31.2633 70.8705 30.68C70.1938 30.0733 69.4705 29.77 68.7005 29.77C66.8338 29.77 65.9005 31.4383 65.9005 34.775C65.9005 36.3383 66.0988 37.7267 66.4955 38.94C66.8922 40.13 67.4288 41.0633 68.1055 41.74C68.7822 42.3933 69.5288 42.72 70.3455 42.72ZM95.9395 42.58C96.0095 42.58 96.0445 42.65 96.0445 42.79C96.0445 42.93 96.0095 43 95.9395 43C95.3328 43 94.8545 42.9883 94.5045 42.965L92.4045 42.93L90.3745 42.965C90.0012 42.9883 89.5112 43 88.9045 43C88.8345 43 88.7995 42.93 88.7995 42.79C88.7995 42.65 88.8345 42.58 88.9045 42.58C89.6278 42.58 90.1178 42.4167 90.3745 42.09C90.6312 41.74 90.7595 41.0983 90.7595 40.165V35.125C90.7595 33.865 90.5262 32.9317 90.0595 32.325C89.6162 31.7183 88.9045 31.415 87.9245 31.415C87.3645 31.415 86.7812 31.5317 86.1745 31.765C85.5912 31.9983 85.0778 32.3133 84.6345 32.71V40.165C84.6345 41.0983 84.7628 41.74 85.0195 42.09C85.2995 42.4167 85.8012 42.58 86.5245 42.58C86.5945 42.58 86.6295 42.65 86.6295 42.79C86.6295 42.93 86.5945 43 86.5245 43C85.9178 43 85.4395 42.9883 85.0895 42.965L82.9895 42.93L80.9245 42.965C80.5745 42.9883 80.0962 43 79.4895 43C79.4195 43 79.3845 42.93 79.3845 42.79C79.3845 42.65 79.4195 42.58 79.4895 42.58C80.2128 42.58 80.7028 42.4167 80.9595 42.09C81.2162 41.74 81.3445 41.0983 81.3445 40.165V33.585C81.3445 32.8617 81.2512 32.3367 81.0645 32.01C80.9012 31.66 80.6328 31.485 80.2595 31.485C79.8628 31.485 79.3028 31.6483 78.5795 31.975H78.5095C78.4395 31.975 78.3812 31.9167 78.3345 31.8C78.3112 31.6833 78.3228 31.6133 78.3695 31.59L83.2345 29.21C83.3745 29.1633 83.4562 29.14 83.4795 29.14C83.7362 29.14 83.9812 29.3967 84.2145 29.91C84.4478 30.4 84.5878 31.0767 84.6345 31.94C86.2445 30.0267 88.0178 29.07 89.9545 29.07C91.2145 29.07 92.2062 29.4783 92.9295 30.295C93.6762 31.0883 94.0495 32.1383 94.0495 33.445V40.165C94.0495 41.0983 94.1778 41.74 94.4345 42.09C94.7145 42.4167 95.2162 42.58 95.9395 42.58ZM107.887 40.55C107.981 40.55 108.051 40.5967 108.097 40.69C108.167 40.7833 108.167 40.8533 108.097 40.9C107.234 41.7633 106.394 42.405 105.577 42.825C104.761 43.2217 103.897 43.42 102.987 43.42C101.961 43.42 101.086 43.175 100.362 42.685C99.639 42.195 99.2774 41.3667 99.2774 40.2V32.43C99.2774 31.7067 99.149 31.205 98.8924 30.925C98.6357 30.645 98.169 30.505 97.4924 30.505C97.469 30.505 97.434 30.47 97.3874 30.4C97.364 30.33 97.3524 30.26 97.3524 30.19C97.3524 30.0967 97.364 30.0267 97.3874 29.98C97.4107 29.91 97.4457 29.875 97.4924 29.875C98.6824 29.8283 99.639 29.5717 100.362 29.105C101.109 28.6383 101.681 27.9267 102.077 26.97C102.124 26.8767 102.217 26.83 102.357 26.83C102.521 26.83 102.602 26.8767 102.602 26.97V29.77C103.956 29.7467 105.472 29.6417 107.152 29.455C107.199 29.455 107.246 29.5483 107.292 29.735C107.362 29.8983 107.397 30.085 107.397 30.295C107.397 30.5283 107.351 30.7617 107.257 30.995C107.187 31.205 107.106 31.2983 107.012 31.275C105.496 30.9483 104.026 30.7733 102.602 30.75V39.045C102.602 39.9317 102.824 40.585 103.267 41.005C103.734 41.425 104.341 41.635 105.087 41.635C106.021 41.635 106.931 41.285 107.817 40.585L107.887 40.55ZM122.97 41.11C123.064 41.11 123.122 41.1683 123.145 41.285C123.192 41.3783 123.169 41.4483 123.075 41.495L119.47 43.21C119.377 43.2567 119.26 43.28 119.12 43.28C118.747 43.28 118.385 43.0817 118.035 42.685C117.709 42.2883 117.475 41.7517 117.335 41.075L115.83 42.125C115.294 42.5217 114.792 42.8133 114.325 43C113.859 43.1633 113.334 43.245 112.75 43.245C111.747 43.245 110.989 43.0233 110.475 42.58C109.962 42.1367 109.705 41.5183 109.705 40.725C109.705 40.095 109.857 39.5933 110.16 39.22C110.464 38.8233 110.837 38.52 111.28 38.31C111.747 38.0767 112.389 37.82 113.205 37.54L114.08 37.225L117.23 36.07V34.075C117.23 32.5817 117.102 31.4967 116.845 30.82C116.612 30.1433 116.204 29.805 115.62 29.805C114.384 29.805 113.684 30.7617 113.52 32.675C113.45 33.375 113.24 33.8767 112.89 34.18C112.564 34.4833 112.097 34.635 111.49 34.635C110.907 34.635 110.475 34.5183 110.195 34.285C109.939 34.0283 109.81 33.7017 109.81 33.305C109.81 32.605 110.219 31.94 111.035 31.31C111.852 30.6567 112.832 30.1317 113.975 29.735C115.142 29.3383 116.169 29.14 117.055 29.14C118.082 29.14 118.91 29.4667 119.54 30.12C120.194 30.75 120.52 31.7183 120.52 33.025V39.22C120.52 39.8967 120.637 40.4217 120.87 40.795C121.127 41.1683 121.477 41.355 121.92 41.355C122.247 41.355 122.585 41.2733 122.935 41.11H122.97ZM117.265 40.48C117.242 40.3867 117.23 40.235 117.23 40.025V36.665L115.725 37.365C115.655 37.3883 115.422 37.4817 115.025 37.645C114.629 37.785 114.279 38.03 113.975 38.38C113.695 38.73 113.555 39.1383 113.555 39.605C113.555 40.165 113.73 40.6083 114.08 40.935C114.454 41.2383 114.874 41.39 115.34 41.39C115.714 41.39 116.099 41.2617 116.495 41.005L117.265 40.48ZM131.227 43.42C129.687 43.42 128.38 43.0933 127.307 42.44C126.257 41.7633 125.463 40.9 124.927 39.85C124.413 38.7767 124.157 37.6567 124.157 36.49C124.157 35.02 124.565 33.7367 125.382 32.64C126.198 31.52 127.237 30.6683 128.497 30.085C129.78 29.4783 131.087 29.175 132.417 29.175C133.537 29.175 134.54 29.4083 135.427 29.875C136.337 30.3417 136.792 30.9833 136.792 31.8C136.792 32.2433 136.617 32.6283 136.267 32.955C135.94 33.2583 135.473 33.41 134.867 33.41C134.307 33.41 133.863 33.27 133.537 32.99C133.21 32.6867 132.942 32.2317 132.732 31.625C132.522 30.9717 132.312 30.5283 132.102 30.295C131.915 30.0383 131.565 29.91 131.052 29.91C130.048 29.91 129.243 30.4117 128.637 31.415C128.053 32.395 127.762 33.7017 127.762 35.335C127.762 37.2717 128.193 38.8233 129.057 39.99C129.92 41.1333 131.297 41.705 133.187 41.705C133.817 41.705 134.353 41.635 134.797 41.495C135.263 41.355 135.847 41.1217 136.547 40.795H136.582C136.652 40.795 136.71 40.83 136.757 40.9C136.827 40.97 136.838 41.0283 136.792 41.075C135.928 41.8683 135.065 42.4633 134.202 42.86C133.338 43.2333 132.347 43.42 131.227 43.42ZM149.245 40.55C149.338 40.55 149.408 40.5967 149.455 40.69C149.525 40.7833 149.525 40.8533 149.455 40.9C148.591 41.7633 147.751 42.405 146.935 42.825C146.118 43.2217 145.255 43.42 144.345 43.42C143.318 43.42 142.443 43.175 141.72 42.685C140.996 42.195 140.635 41.3667 140.635 40.2V32.43C140.635 31.7067 140.506 31.205 140.25 30.925C139.993 30.645 139.526 30.505 138.85 30.505C138.826 30.505 138.791 30.47 138.745 30.4C138.721 30.33 138.71 30.26 138.71 30.19C138.71 30.0967 138.721 30.0267 138.745 29.98C138.768 29.91 138.803 29.875 138.85 29.875C140.04 29.8283 140.996 29.5717 141.72 29.105C142.466 28.6383 143.038 27.9267 143.435 26.97C143.481 26.8767 143.575 26.83 143.715 26.83C143.878 26.83 143.96 26.8767 143.96 26.97V29.77C145.313 29.7467 146.83 29.6417 148.51 29.455C148.556 29.455 148.603 29.5483 148.65 29.735C148.72 29.8983 148.755 30.085 148.755 30.295C148.755 30.5283 148.708 30.7617 148.615 30.995C148.545 31.205 148.463 31.2983 148.37 31.275C146.853 30.9483 145.383 30.7733 143.96 30.75V39.045C143.96 39.9317 144.181 40.585 144.625 41.005C145.091 41.425 145.698 41.635 146.445 41.635C147.378 41.635 148.288 41.285 149.175 40.585L149.245 40.55Z" fill="#DF8F66"/>
</svg>
